<svg width="326" height="48" viewBox="0 0 326 48" fill="none" xmlns="http://www.w3.org/2000/svg">
<path d="M0.0194121 1.74969L0.019412 0.634794L-1.09549 0.634794L-1.09549 1.74969L0.0194121 1.74969ZM26.0225 4.98391L25.265 5.80202L25.2726 5.80888L26.0225 4.98391ZM27.6397 19.9907L26.7832 19.277L26.7812 19.2794L27.6397 19.9907ZM22.2062 23.2896L21.8947 22.2191L21.0913 22.4528L21.0913 23.2896L22.2062 23.2896ZM22.2062 23.6777L21.0913 23.6777L21.0913 24.5515L21.9397 24.7603L22.2062 23.6777ZM28.6746 27.3L27.8356 28.0342L27.8407 28.0401L27.8459 28.0459L28.6746 27.3ZM27.3809 43.5358L26.6223 42.7188L26.615 42.7257L27.3809 43.5358ZM0.0194131 46.8994L-1.09549 46.8994L-1.09549 48.0143L0.0194132 48.0143L0.0194131 46.8994ZM9.46334 27.3647L9.46334 26.2498L8.34844 26.2498L8.34844 27.3647L9.46334 27.3647ZM9.46334 40.1076L8.34844 40.1076L8.34844 41.2224L9.46334 41.2224L9.46334 40.1076ZM18.131 19.7966L18.7755 20.7064L18.7879 20.6977L18.8 20.6886L18.131 19.7966ZM18.131 9.64119L18.7755 8.7314L18.131 9.64119ZM9.46334 8.54156L9.46334 7.42665L8.34844 7.42665L8.34844 8.54156L9.46334 8.54156ZM9.46334 20.8963L8.34844 20.8963L8.34844 22.0112L9.46334 22.0112L9.46334 20.8963ZM0.0194121 2.8646L15.8671 2.86459L15.8671 0.634794L0.019412 0.634794L0.0194121 2.8646ZM15.8671 2.86459C20.1405 2.86459 23.2125 3.90142 25.2651 5.80199L26.78 4.16585C24.1754 1.75412 20.477 0.634794 15.8671 0.634794L15.8671 2.86459ZM25.2726 5.80888C27.3746 7.71982 28.4653 10.3323 28.4653 13.781L30.6951 13.781C30.6951 9.81252 29.414 6.56031 26.7725 4.15896L25.2726 5.80888ZM28.4653 13.781C28.4653 16.1822 27.8676 17.9756 26.7832 19.277L28.4961 20.7044C29.999 18.901 30.6951 16.5546 30.6951 13.781L28.4653 13.781ZM26.7812 19.2794C25.7059 20.577 24.1081 21.5752 21.8947 22.2191L22.5176 24.3601C25.0478 23.6241 27.0722 22.423 28.4982 20.702L26.7812 19.2794ZM21.0913 23.2896L21.0913 23.6777L23.3211 23.6777L23.3211 23.2896L21.0913 23.2896ZM21.9397 24.7603C24.5785 25.4098 26.5118 26.5214 27.8356 28.0342L29.5137 26.5659C27.8188 24.6288 25.4398 23.3255 22.4726 22.5951L21.9397 24.7603ZM27.8459 28.0459C29.1618 29.5079 29.8883 31.6039 29.8883 34.48L32.1182 34.48C32.1181 31.2326 31.2923 28.542 29.5033 26.5542L27.8459 28.0459ZM29.8883 34.48C29.8883 38.0163 28.7748 40.7201 26.6223 42.7188L28.1396 44.3528C30.8168 41.8668 32.1182 38.5333 32.1182 34.48L29.8883 34.48ZM26.615 42.7257C24.5097 44.7161 21.4763 45.7845 17.3548 45.7845L17.3548 48.0143C21.858 48.0143 25.5086 46.8403 28.1469 44.346L26.615 42.7257ZM17.3548 45.7845L0.0194131 45.7845L0.0194132 48.0143L17.3548 48.0143L17.3548 45.7845ZM1.13431 46.8994L1.13431 1.74969L-1.09549 1.74969L-1.09549 46.8994L1.13431 46.8994ZM14.3794 41.2224C16.7858 41.2224 18.7769 40.8301 20.1409 39.848L18.838 38.0385C18.0458 38.6088 16.6302 38.9926 14.3794 38.9926L14.3794 41.2224ZM20.1409 39.848C21.6441 38.7657 22.2214 36.8968 22.2214 34.6741L19.9916 34.6741C19.9916 36.5911 19.4909 37.5684 18.838 38.0385L20.1409 39.848ZM22.2214 34.6741L22.2214 32.7982L19.9916 32.7982L19.9916 34.6741L22.2214 34.6741ZM22.2214 32.7982C22.2214 30.5754 21.6441 28.7066 20.1409 27.6243L18.838 29.4338C19.4909 29.9039 19.9916 30.8812 19.9916 32.7982L22.2214 32.7982ZM20.1409 27.6243C18.7769 26.6422 16.7858 26.2498 14.3794 26.2498L14.3794 28.4796C16.6302 28.4796 18.0458 28.8635 18.838 29.4338L20.1409 27.6243ZM14.3794 26.2498L9.46334 26.2498L9.46334 28.4796L14.3794 28.4796L14.3794 26.2498ZM8.34844 27.3647L8.34844 40.1076L10.5782 40.1076L10.5782 27.3647L8.34844 27.3647ZM9.46334 41.2224L14.3794 41.2224L14.3794 38.9926L9.46334 38.9926L9.46334 41.2224ZM13.1503 22.0112C15.505 22.0112 17.4531 21.6431 18.7755 20.7064L17.4866 18.8869C16.7391 19.4164 15.3668 19.7814 13.1503 19.7814L13.1503 22.0112ZM18.8 20.6886C20.2403 19.6084 20.7984 17.7992 20.7984 15.6568L18.5686 15.6568C18.5686 17.4818 18.0917 18.4325 17.4621 18.9047L18.8 20.6886ZM20.7984 15.6568L20.7984 13.7163L18.5686 13.7163L18.5686 15.6568L20.7984 15.6568ZM20.7984 13.7163C20.7984 11.5809 20.2429 9.77086 18.7755 8.7314L17.4866 10.551C18.089 10.9777 18.5686 11.8844 18.5686 13.7163L20.7984 13.7163ZM18.7755 8.7314C17.4531 7.79474 15.505 7.42665 13.1503 7.42665L13.1503 9.65646C15.3668 9.65646 16.7391 10.0215 17.4866 10.551L18.7755 8.7314ZM13.1503 7.42665L9.46334 7.42665L9.46334 9.65646L13.1503 9.65646L13.1503 7.42665ZM8.34844 8.54156L8.34844 20.8963L10.5782 20.8963L10.5782 8.54156L8.34844 8.54156ZM9.46334 22.0112L13.1503 22.0112L13.1503 19.7814L9.46334 19.7814L9.46334 22.0112ZM43.0093 46.8994L41.8944 46.8994L41.8944 48.0143L43.0093 48.0143L43.0093 46.8994ZM43.0093 1.74969L43.0093 0.634793L41.8944 0.634793L41.8944 1.74969L43.0093 1.74969ZM52.7766 1.74969L53.8915 1.74969L53.8915 0.634793L52.7766 0.634793L52.7766 1.74969ZM52.7766 38.9432L51.6617 38.9432L51.6617 40.0581L52.7766 40.0581L52.7766 38.9432ZM72.1819 38.9432L73.2969 38.9432L73.2969 37.8283L72.1819 37.8283L72.1819 38.9432ZM72.1819 46.8994L72.1819 48.0143L73.2969 48.0143L73.2969 46.8994L72.1819 46.8994ZM44.1242 46.8994L44.1242 1.74969L41.8944 1.74969L41.8944 46.8994L44.1242 46.8994ZM43.0093 2.86459L52.7766 2.86459L52.7766 0.634793L43.0093 0.634793L43.0093 2.86459ZM51.6617 1.74969L51.6617 38.9432L53.8915 38.9432L53.8915 1.74969L51.6617 1.74969ZM52.7766 40.0581L72.1819 40.0581L72.1819 37.8283L52.7766 37.8283L52.7766 40.0581ZM71.067 38.9432L71.067 46.8994L73.2969 46.8994L73.2969 38.9432L71.067 38.9432ZM72.1819 45.7845L43.0093 45.7845L43.0093 48.0143L72.1819 48.0143L72.1819 45.7845ZM92.3382 1.74969L93.4531 1.74969L93.4531 0.634792L92.3382 0.634792L92.3382 1.74969ZM92.4676 34.286L91.3555 34.3654L91.3571 34.3873L91.3595 34.4091L92.4676 34.286ZM93.2438 37.2614L92.2362 37.7387L92.2463 37.7599L92.2572 37.7807L93.2438 37.2614ZM95.1196 39.202L94.561 40.1668L94.5805 40.1781L94.6004 40.1886L95.1196 39.202ZM101.847 39.202L102.366 40.1886L102.386 40.1781L102.405 40.1668L101.847 39.202ZM103.658 37.2614L102.671 36.7422L102.66 36.7629L102.65 36.7842L103.658 37.2614ZM104.434 34.286L103.326 34.1672L103.324 34.1854L103.322 34.2036L104.434 34.286ZM104.628 1.74969L104.628 0.634792L103.513 0.634792L103.513 1.74969L104.628 1.74969ZM114.331 1.74969L115.446 1.74969L115.446 0.634791L114.331 0.634791L114.331 1.74969ZM113.684 37.1967L112.588 36.9937L112.586 37.0036L112.584 37.0135L113.684 37.1967ZM111.355 43.0183L110.464 42.3494L111.355 43.0183ZM90.4624 46.5113L90.8538 45.4674L90.4624 46.5113ZM85.611 43.0183L86.503 42.3494L85.611 43.0183ZM83.2177 37.1967L82.118 37.38L82.1196 37.3899L82.1215 37.3998L83.2177 37.1967ZM82.6356 1.74969L82.6356 0.634792L81.5207 0.634792L81.5207 1.74969L82.6356 1.74969ZM91.2233 1.74969L91.2233 30.3402L93.4531 30.3402L93.4531 1.74969L91.2233 1.74969ZM91.2233 30.3402C91.2233 31.7853 91.2671 33.1274 91.3555 34.3654L93.5797 34.2065C93.4956 33.0296 93.4531 31.7412 93.4531 30.3402L91.2233 30.3402ZM91.3595 34.4091C91.4987 35.6622 91.7823 36.7805 92.2362 37.7387L94.2514 36.7842C93.9291 36.1037 93.6952 35.2383 93.5757 34.1628L91.3595 34.4091ZM92.2572 37.7807C92.7886 38.7903 93.5642 39.5897 94.561 40.1668L95.6783 38.2371C95.0364 37.8655 94.5615 37.3712 94.2304 36.7422L92.2572 37.7807ZM94.6004 40.1886C95.6431 40.7374 96.9677 40.9637 98.4832 40.9637L98.4832 38.7339C97.1527 38.7339 96.2348 38.529 95.6389 38.2154L94.6004 40.1886ZM98.4832 40.9637C99.9988 40.9637 101.323 40.7374 102.366 40.1886L101.328 38.2154C100.732 38.529 99.8138 38.7339 98.4832 38.7339L98.4832 40.9637ZM102.405 40.1668C103.411 39.5845 104.176 38.7717 104.666 37.7387L102.65 36.7842C102.364 37.3898 101.921 37.8707 101.288 38.2371L102.405 40.1668ZM104.645 37.7807C105.163 36.7955 105.451 35.6468 105.546 34.3683L103.322 34.2036C103.245 35.2537 103.015 36.0887 102.671 36.7422L104.645 37.7807ZM105.543 34.4047C105.677 33.1518 105.743 31.7964 105.743 30.3402L103.513 30.3402C103.513 31.7301 103.45 33.0052 103.326 34.1672L105.543 34.4047ZM105.743 30.3402L105.743 1.74969L103.513 1.74969L103.513 30.3402L105.743 30.3402ZM104.628 2.86459L114.331 2.86459L114.331 0.634791L104.628 0.634792L104.628 2.86459ZM113.216 1.74969L113.216 29.0465L115.446 29.0465L115.446 1.74969L113.216 1.74969ZM113.216 29.0465C113.216 32.103 113.004 34.749 112.588 36.9937L114.78 37.3998C115.227 34.9872 115.446 32.1998 115.446 29.0465L113.216 29.0465ZM112.584 37.0135C112.219 39.2036 111.5 40.9676 110.464 42.3494L112.247 43.6873C113.54 41.9642 114.373 39.8472 114.784 37.38L112.584 37.0135ZM110.464 42.3494C109.444 43.7089 108.012 44.7552 106.113 45.4674L106.896 47.5552C109.136 46.715 110.938 45.4327 112.247 43.6873L110.464 42.3494ZM106.113 45.4674C104.213 46.1798 101.685 46.5607 98.4832 46.5607L98.4832 48.7905C101.836 48.7905 104.656 48.3952 106.896 47.5552L106.113 45.4674ZM98.4832 46.5607C95.2812 46.5607 92.7536 46.1798 90.8538 45.4674L90.0709 47.5552C92.311 48.3952 95.1306 48.7905 98.4832 48.7905L98.4832 46.5607ZM90.8538 45.4674C88.9547 44.7552 87.5226 43.7089 86.503 42.3494L84.7191 43.6873C86.0282 45.4327 87.8303 46.715 90.0709 47.5552L90.8538 45.4674ZM86.503 42.3494C85.462 40.9615 84.7207 39.19 84.314 36.9937L82.1215 37.3998C82.5772 39.8607 83.4314 41.9704 84.7191 43.6873L86.503 42.3494ZM84.3174 37.0135C83.942 34.7608 83.7505 32.1079 83.7505 29.0465L81.5207 29.0465C81.5207 32.1948 81.7172 34.9754 82.118 37.38L84.3174 37.0135ZM83.7505 29.0465L83.7505 1.74969L81.5207 1.74969L81.5207 29.0465L83.7505 29.0465ZM82.6356 2.86459L92.3382 2.86459L92.3382 0.634792L82.6356 0.634792L82.6356 2.86459ZM126.272 46.8994L125.157 46.8994L125.157 48.0143L126.272 48.0143L126.272 46.8994ZM126.272 1.74969L126.272 0.634791L125.157 0.634791L125.157 1.74969L126.272 1.74969ZM155.122 1.74969L156.236 1.74969L156.236 0.63479L155.122 0.63479L155.122 1.74969ZM155.122 9.70587L155.122 10.8208L156.236 10.8208L156.236 9.70587L155.122 9.70587ZM135.975 9.70587L135.975 8.59097L134.86 8.59097L134.86 9.70587L135.975 9.70587ZM135.975 20.0554L134.86 20.0554L134.86 21.1703L135.975 21.1703L135.975 20.0554ZM154.475 20.0554L155.59 20.0554L155.59 18.9405L154.475 18.9405L154.475 20.0554ZM154.475 28.0116L154.475 29.1265L155.59 29.1265L155.59 28.0116L154.475 28.0116ZM135.975 28.0116L135.975 26.8967L134.86 26.8967L134.86 28.0116L135.975 28.0116ZM135.975 38.9432L134.86 38.9432L134.86 40.0581L135.975 40.0581L135.975 38.9432ZM155.122 38.9432L156.236 38.9432L156.236 37.8283L155.122 37.8283L155.122 38.9432ZM155.122 46.8994L155.122 48.0143L156.236 48.0143L156.236 46.8994L155.122 46.8994ZM127.387 46.8994L127.387 1.74969L125.157 1.74969L125.157 46.8994L127.387 46.8994ZM126.272 2.86459L155.122 2.86459L155.122 0.63479L126.272 0.634791L126.272 2.86459ZM154.007 1.74969L154.007 9.70587L156.236 9.70587L156.236 1.74969L154.007 1.74969ZM155.122 8.59097L135.975 8.59097L135.975 10.8208L155.122 10.8208L155.122 8.59097ZM134.86 9.70587L134.86 20.0554L137.09 20.0554L137.09 9.70587L134.86 9.70587ZM135.975 21.1703L154.475 21.1703L154.475 18.9405L135.975 18.9405L135.975 21.1703ZM153.36 20.0554L153.36 28.0116L155.59 28.0116L155.59 20.0554L153.36 20.0554ZM154.475 26.8967L135.975 26.8967L135.975 29.1265L154.475 29.1265L154.475 26.8967ZM134.86 28.0116L134.86 38.9432L137.09 38.9432L137.09 28.0116L134.86 28.0116ZM135.975 40.0581L155.122 40.0581L155.122 37.8283L135.975 37.8283L135.975 40.0581ZM154.007 38.9432L154.007 46.8994L156.236 46.8994L156.236 38.9432L154.007 38.9432ZM155.122 45.7845L126.272 45.7845L126.272 48.0143L155.122 48.0143L155.122 45.7845ZM168.033 46.8994L166.918 46.8994L166.918 48.0143L168.033 48.0143L168.033 46.8994ZM168.033 1.74969L168.033 0.63479L166.918 0.63479L166.918 1.74969L168.033 1.74969ZM191.384 2.78464L190.97 3.8198L190.981 3.8243L190.993 3.82855L191.384 2.78464ZM195.718 5.63076L194.902 6.39047L194.909 6.39788L194.916 6.40516L195.718 5.63076ZM198.435 22.0606L199.49 22.4209L198.435 22.0606ZM195.718 26.5885L194.916 25.8141L194.909 25.8214L194.902 25.8288L195.718 26.5885ZM191.384 29.4993L191.776 30.5432L191.787 30.539L191.798 30.5345L191.384 29.4993ZM177.8 30.4696L177.8 29.3547L176.686 29.3547L176.686 30.4696L177.8 30.4696ZM177.8 46.8994L177.8 48.0143L178.915 48.0143L178.915 46.8994L177.8 46.8994ZM177.8 22.6428L176.686 22.6428L176.686 23.7577L177.8 23.7577L177.8 22.6428ZM187.762 21.3491L186.993 20.5417L186.983 20.5511L186.974 20.5607L187.762 21.3491ZM187.762 10.8702L186.974 11.6585L186.983 11.6682L186.993 11.6775L187.762 10.8702ZM177.8 9.5765L177.8 8.4616L176.686 8.4616L176.686 9.5765L177.8 9.5765ZM169.148 46.8994L169.148 1.74969L166.918 1.74969L166.918 46.8994L169.148 46.8994ZM168.033 2.86459L185.498 2.86459L185.498 0.63479L168.033 0.63479L168.033 2.86459ZM185.498 2.86459C187.581 2.86459 189.399 3.19124 190.97 3.8198L191.798 1.74948C189.92 0.998107 187.813 0.63479 185.498 0.63479L185.498 2.86459ZM190.993 3.82855C192.569 4.41963 193.864 5.27592 194.902 6.39047L196.534 4.87104C195.243 3.48445 193.649 2.44333 191.776 1.74072L190.993 3.82855ZM194.916 6.40516C196.001 7.52929 196.825 8.89406 197.38 10.5189L199.49 9.79839C198.837 7.88719 197.85 6.23335 196.52 4.85635L194.916 6.40516ZM197.38 10.5189C197.938 12.1525 198.225 14.0117 198.225 16.1096L200.455 16.1096C200.455 13.809 200.14 11.7009 199.49 9.79839L197.38 10.5189ZM198.225 16.1096C198.225 18.2075 197.938 20.0667 197.38 21.7003L199.49 22.4209C200.14 20.5184 200.455 18.4103 200.455 16.1096L198.225 16.1096ZM197.38 21.7003C196.825 23.3252 196.001 24.69 194.916 25.8141L196.52 27.3629C197.85 25.9859 198.837 24.3321 199.49 22.4209L197.38 21.7003ZM194.902 25.8288C193.859 26.9488 192.556 27.8298 190.97 28.4641L191.798 30.5345C193.662 29.7888 195.248 28.7293 196.534 27.3482L194.902 25.8288ZM190.993 28.4554C189.415 29.0472 187.589 29.3547 185.498 29.3547L185.498 31.5845C187.806 31.5845 189.904 31.2451 191.776 30.5432L190.993 28.4554ZM185.498 29.3547L177.8 29.3547L177.8 31.5845L185.498 31.5845L185.498 29.3547ZM176.686 30.4696L176.686 46.8994L178.915 46.8994L178.915 30.4696L176.686 30.4696ZM177.8 45.7845L168.033 45.7845L168.033 48.0143L177.8 48.0143L177.8 45.7845ZM177.8 23.7577L183.04 23.7577L183.04 21.5279L177.8 21.5279L177.8 23.7577ZM183.04 23.7577C185.39 23.7577 187.358 23.3296 188.55 22.1374L186.974 20.5607C186.441 21.0934 185.261 21.5279 183.04 21.5279L183.04 23.7577ZM188.531 22.1564C189.758 20.9879 190.235 19.1946 190.235 17.0799L188.005 17.0799C188.005 18.9325 187.577 19.9853 186.993 20.5417L188.531 22.1564ZM190.235 17.0799L190.235 15.1394L188.005 15.1394L188.005 17.0799L190.235 17.0799ZM190.235 15.1394C190.235 13.0246 189.758 11.2314 188.531 10.0628L186.993 11.6775C187.577 12.2339 188.005 13.2868 188.005 15.1394L190.235 15.1394ZM188.55 10.0818C187.358 8.88965 185.39 8.4616 183.04 8.4616L183.04 10.6914C185.261 10.6914 186.441 11.1258 186.974 11.6585L188.55 10.0818ZM183.04 8.4616L177.8 8.4616L177.8 10.6914L183.04 10.6914L183.04 8.4616ZM176.686 9.5765L176.686 22.6428L178.915 22.6428L178.915 9.5765L176.686 9.5765ZM233.274 46.8994L232.196 47.1819L232.414 48.0143L233.274 48.0143L233.274 46.8994ZM230.428 36.0324L231.507 35.75L231.289 34.9175L230.428 34.9175L230.428 36.0324ZM218.074 36.0324L218.074 34.9175L217.208 34.9175L216.994 35.756L218.074 36.0324ZM215.292 46.8994L215.292 48.0143L216.158 48.0143L216.372 47.1759L215.292 46.8994ZM205.46 46.8994L204.384 46.608L204.003 48.0143L205.46 48.0143L205.46 46.8994ZM217.685 1.74969L217.685 0.634789L216.832 0.634789L216.609 1.4583L217.685 1.74969ZM231.399 1.74969L232.475 1.4583L232.252 0.634789L231.399 0.634789L231.399 1.74969ZM243.624 46.8994L243.624 48.0143L245.081 48.0143L244.7 46.608L243.624 46.8994ZM224.542 11.1289L225.622 10.8508L225.406 10.014L224.542 10.014L224.542 11.1289ZM224.025 11.1289L224.025 10.014L223.16 10.014L222.945 10.8508L224.025 11.1289ZM219.626 28.2056L218.546 27.9275L218.188 29.3205L219.626 29.3205L219.626 28.2056ZM228.941 28.2056L228.941 29.3205L230.379 29.3205L230.02 27.9275L228.941 28.2056ZM234.353 46.6169L231.507 35.75L229.35 36.3149L232.196 47.1819L234.353 46.6169ZM230.428 34.9175L218.074 34.9175L218.074 37.1473L230.428 37.1473L230.428 34.9175ZM216.994 35.756L214.212 46.623L216.372 47.1759L219.154 36.3089L216.994 35.756ZM215.292 45.7845L205.46 45.7845L205.46 48.0143L215.292 48.0143L215.292 45.7845ZM206.536 47.1908L218.762 2.04108L216.609 1.4583L204.384 46.608L206.536 47.1908ZM217.685 2.86459L231.399 2.86459L231.399 0.634789L217.685 0.634789L217.685 2.86459ZM230.322 2.04108L242.548 47.1908L244.7 46.608L232.475 1.4583L230.322 2.04108ZM243.624 45.7845L233.274 45.7845L233.274 48.0143L243.624 48.0143L243.624 45.7845ZM224.542 10.014L224.025 10.014L224.025 12.2438L224.542 12.2438L224.542 10.014ZM222.945 10.8508L218.546 27.9275L220.706 28.4837L225.104 11.407L222.945 10.8508ZM219.626 29.3205L228.941 29.3205L228.941 27.0907L219.626 27.0907L219.626 29.3205ZM230.02 27.9275L225.622 10.8508L223.462 11.407L227.861 28.4837L230.02 27.9275ZM255.953 45.7998L256.408 44.7816L255.953 45.7998ZM249.162 40.6897L248.335 39.941L247.698 40.6447L248.291 41.3862L249.162 40.6897ZM254.789 34.48L255.616 33.732L254.79 32.819L253.963 33.7313L254.789 34.48ZM260.158 38.4904L259.705 39.5093L259.713 39.5129L260.158 38.4904ZM271.478 38.2317L272.203 39.0782L271.478 38.2317ZM271.866 30.1461L271.118 30.9729L271.127 30.9815L271.137 30.9899L271.866 30.1461ZM267.208 28.3997L267.028 29.4998L267.036 29.5011L267.208 28.3997ZM262.487 27.6235L262.299 28.7226L262.306 28.7236L262.487 27.6235ZM253.689 23.1602L252.809 23.8447L252.816 23.8527L253.689 23.1602ZM255.242 4.5958L255.956 5.45233L255.963 5.44592L255.242 4.5958ZM276.329 2.59058L276.758 1.56144L276.758 1.56144L276.329 2.59058ZM282.603 6.98912L283.434 7.73253L284.087 7.00348L283.448 6.26194L282.603 6.98912ZM277.105 13.1341L276.278 13.8814L277.109 14.8018L277.936 13.8776L277.105 13.1341ZM272.836 10.0293L272.359 11.0369L272.37 11.0421L272.381 11.047L272.836 10.0293ZM262.163 17.7267L261.457 18.5896L261.466 18.5973L261.476 18.6047L262.163 17.7267ZM266.95 19.4732L267.145 18.3756L267.143 18.3753L266.95 19.4732ZM271.672 20.3141L271.476 21.4117L271.478 21.412L271.672 20.3141ZM280.145 24.4539L280.958 23.6908L280.145 24.4539ZM282.021 38.8785L283.051 39.3056L283.055 39.2968L282.021 38.8785ZM278.722 43.5358L279.46 44.3718L279.467 44.3658L279.473 44.3597L278.722 43.5358ZM273.289 46.576L272.93 45.5204L272.923 45.5227L273.289 46.576ZM265.85 46.5607C262.176 46.5607 259.038 45.9552 256.408 44.7816L255.499 46.8179C258.475 48.1455 261.935 48.7905 265.85 48.7905L265.85 46.5607ZM256.408 44.7816C253.749 43.5953 251.634 41.9955 250.032 39.9932L248.291 41.3862C250.139 43.6962 252.552 45.5031 255.499 46.8179L256.408 44.7816ZM249.988 41.4384L255.615 35.2287L253.963 33.7313L248.335 39.941L249.988 41.4384ZM253.962 35.228C255.69 37.1373 257.603 38.5748 259.705 39.5092L260.611 37.4716C258.832 36.6812 257.166 35.445 255.616 33.732L253.962 35.228ZM259.713 39.5129C261.828 40.4322 263.984 40.899 266.174 40.899L266.174 38.6692C264.31 38.6692 262.455 38.2736 260.602 37.468L259.713 39.5129ZM266.174 40.899C268.648 40.899 270.718 40.3513 272.203 39.0782L270.752 37.3852C269.822 38.182 268.357 38.6692 266.174 38.6692L266.174 40.899ZM272.203 39.0782C273.712 37.7853 274.404 35.9562 274.404 33.7685L272.174 33.7685C272.174 35.4618 271.659 36.6082 270.752 37.3852L272.203 39.0782ZM274.404 33.7685C274.404 31.944 273.852 30.3886 272.594 29.3024L271.137 30.9899C271.777 31.5424 272.174 32.4019 272.174 33.7685L274.404 33.7685ZM272.614 29.3194C271.462 28.2774 269.643 27.653 267.381 27.2982L267.036 29.5011C269.173 29.8363 270.458 30.3762 271.118 30.9729L272.614 29.3194ZM267.389 27.2995L262.667 26.5233L262.306 28.7236L267.028 29.4998L267.389 27.2995ZM262.674 26.5244C258.78 25.8617 256.145 24.4634 254.563 22.4678L252.816 23.8527C254.857 26.4281 258.085 28.0053 262.299 28.7225L262.674 26.5244ZM254.569 22.4757C252.93 20.3672 252.088 17.7919 252.088 14.6866L249.858 14.6866C249.858 18.2222 250.827 21.296 252.809 23.8447L254.569 22.4757ZM252.088 14.6866C252.088 10.5975 253.409 7.57413 255.956 5.45229L254.528 3.73931C251.382 6.361 249.858 10.0648 249.858 14.6866L252.088 14.6866ZM255.963 5.44592C258.543 3.25657 262.242 2.08837 267.208 2.08837L267.208 -0.141427C261.911 -0.141427 257.632 1.10527 254.521 3.74568L255.963 5.44592ZM267.208 2.08837C270.589 2.08837 273.478 2.61034 275.9 3.61972L276.758 1.56144C274.006 0.41468 270.814 -0.141427 267.208 -0.141427L267.208 2.08837ZM275.9 3.61972C278.351 4.64075 280.292 6.01176 281.758 7.71631L283.448 6.26194C281.724 4.25792 279.482 2.69657 276.758 1.56144L275.9 3.61972ZM281.772 6.24571L276.274 12.3907L277.936 13.8776L283.434 7.73253L281.772 6.24571ZM277.933 12.3868C276.622 10.9354 275.072 9.8082 273.291 9.01159L272.381 11.047C273.877 11.7166 275.174 12.6592 276.278 13.8814L277.933 12.3868ZM273.313 9.02171C271.506 8.16546 269.485 7.75007 267.273 7.75007L267.273 9.97987C269.201 9.97987 270.889 10.3407 272.359 11.0369L273.313 9.02171ZM267.273 7.75007C264.971 7.75007 263.037 8.2186 261.665 9.34581C260.252 10.5075 259.625 12.2083 259.625 14.2338L261.855 14.2338C261.855 12.68 262.317 11.6965 263.081 11.0685C263.887 10.4062 265.22 9.97987 267.273 9.97987L267.273 7.75007ZM259.625 14.2338C259.625 16.0237 260.183 17.5471 261.457 18.5896L262.869 16.8639C262.246 16.3539 261.855 15.5487 261.855 14.2338L259.625 14.2338ZM261.476 18.6047C262.684 19.55 264.496 20.1723 266.756 20.5712L267.143 18.3753C265.005 17.9979 263.626 17.4559 262.85 16.8487L261.476 18.6047ZM266.754 20.5708L271.476 21.4117L271.867 19.2165L267.145 18.3756L266.754 20.5708ZM271.478 21.412C274.974 22.029 277.555 23.3238 279.332 25.217L280.958 23.6908C278.768 21.358 275.7 19.8929 271.865 19.2162L271.478 21.412ZM279.332 25.217C281.079 27.0774 282.006 29.6266 282.006 32.9923L284.236 32.9923C284.236 29.1995 283.179 26.0565 280.958 23.6908L279.332 25.217ZM282.006 32.9923C282.006 34.9737 281.663 36.7925 280.988 38.4602L283.055 39.2968C283.846 37.3423 284.236 35.2369 284.236 32.9923L282.006 32.9923ZM280.991 38.4515C280.323 40.0628 279.321 41.4812 277.971 42.712L279.473 44.3597C281.056 42.9168 282.253 41.2303 283.051 39.3056L280.991 38.4515ZM277.985 42.6998C276.646 43.8813 274.969 44.8271 272.93 45.5204L273.648 47.6315C275.921 46.8587 277.867 45.7777 279.46 44.3718L277.985 42.6998ZM272.923 45.5227C270.955 46.2056 268.604 46.5607 265.85 46.5607L265.85 48.7905C268.788 48.7905 271.397 48.4125 273.654 47.6293L272.923 45.5227ZM297.973 45.7998L298.427 44.7816L297.973 45.7998ZM291.181 40.6897L290.355 39.941L289.717 40.6447L290.311 41.3862L291.181 40.6897ZM296.809 34.48L297.635 33.732L296.809 32.819L295.983 33.7313L296.809 34.48ZM302.177 38.4904L301.725 39.5093L301.733 39.5129L302.177 38.4904ZM313.497 38.2317L314.223 39.0782L313.497 38.2317ZM313.885 30.1461L313.137 30.9729L313.147 30.9815L313.157 30.9899L313.885 30.1461ZM309.228 28.3997L309.047 29.4998L309.055 29.5011L309.228 28.3997ZM304.506 27.6235L304.319 28.7226L304.325 28.7236L304.506 27.6235ZM295.709 23.1602L294.829 23.8447L294.835 23.8527L295.709 23.1602ZM297.261 4.5958L297.975 5.45232L297.983 5.44592L297.261 4.5958ZM318.349 2.59058L318.777 1.56144L318.777 1.56144L318.349 2.59058ZM324.623 6.98912L325.454 7.73253L326.106 7.00348L325.468 6.26194L324.623 6.98912ZM319.125 13.1341L318.297 13.8814L319.129 14.8018L319.956 13.8776L319.125 13.1341ZM314.856 10.0293L314.378 11.0369L314.389 11.042L314.4 11.047L314.856 10.0293ZM304.183 17.7267L303.477 18.5896L303.486 18.5973L303.496 18.6047L304.183 17.7267ZM308.969 19.4732L309.165 18.3756L309.163 18.3753L308.969 19.4732ZM313.691 20.3141L313.496 21.4117L313.498 21.412L313.691 20.3141ZM322.165 24.4539L322.978 23.6908L322.165 24.4539ZM324.041 38.8785L325.071 39.3056L325.074 39.2968L324.041 38.8785ZM320.742 43.5358L321.48 44.3718L321.486 44.3658L321.493 44.3597L320.742 43.5358ZM315.308 46.576L314.95 45.5204L314.943 45.5227L315.308 46.576ZM307.87 46.5607C304.195 46.5607 301.058 45.9552 298.427 44.7816L297.519 46.8179C300.494 48.1455 303.954 48.7905 307.87 48.7905L307.87 46.5607ZM298.427 44.7816C295.768 43.5953 293.654 41.9955 292.052 39.9932L290.311 41.3862C292.159 43.6962 294.572 45.5031 297.519 46.8179L298.427 44.7816ZM292.007 41.4384L297.635 35.2287L295.983 33.7313L290.355 39.941L292.007 41.4384ZM295.982 35.228C297.709 37.1373 299.622 38.5748 301.725 39.5092L302.63 37.4716C300.852 36.6812 299.185 35.445 297.635 33.732L295.982 35.228ZM301.733 39.5129C303.847 40.4322 306.003 40.899 308.193 40.899L308.193 38.6692C306.329 38.6692 304.475 38.2736 302.622 37.468L301.733 39.5129ZM308.193 40.899C310.667 40.899 312.738 40.3513 314.223 39.0782L312.772 37.3852C311.842 38.182 310.376 38.6692 308.193 38.6692L308.193 40.899ZM314.223 39.0782C315.731 37.7853 316.423 35.9562 316.423 33.7685L314.194 33.7685C314.194 35.4618 313.678 36.6082 312.772 37.3852L314.223 39.0782ZM316.423 33.7685C316.423 31.944 315.872 30.3886 314.614 29.3024L313.157 30.9899C313.796 31.5424 314.194 32.4019 314.194 33.7685L316.423 33.7685ZM314.633 29.3194C313.482 28.2774 311.662 27.653 309.401 27.2982L309.055 29.5011C311.192 29.8363 312.478 30.3762 313.137 30.9729L314.633 29.3194ZM309.409 27.2995L304.687 26.5233L304.325 28.7236L309.047 29.4998L309.409 27.2995ZM304.693 26.5244C300.8 25.8617 298.164 24.4634 296.583 22.4678L294.835 23.8527C296.876 26.4281 300.105 28.0053 304.319 28.7225L304.693 26.5244ZM296.589 22.4757C294.949 20.3672 294.107 17.7919 294.107 14.6866L291.877 14.6866C291.877 18.2222 292.847 21.296 294.829 23.8447L296.589 22.4757ZM294.107 14.6866C294.107 10.5975 295.429 7.57413 297.975 5.45229L296.548 3.73931C293.402 6.36099 291.877 10.0648 291.877 14.6866L294.107 14.6866ZM297.983 5.44592C300.563 3.25657 304.262 2.08837 309.228 2.08837L309.228 -0.141428C303.931 -0.141428 299.652 1.10527 296.54 3.74568L297.983 5.44592ZM309.228 2.08837C312.609 2.08837 315.497 2.61034 317.92 3.61972L318.777 1.56144C316.025 0.414679 312.833 -0.141428 309.228 -0.141428L309.228 2.08837ZM317.92 3.61972C320.37 4.64075 322.311 6.01176 323.778 7.71631L325.468 6.26194C323.744 4.25792 321.502 2.69657 318.777 1.56144L317.92 3.61972ZM323.792 6.24571L318.294 12.3907L319.956 13.8776L325.454 7.73253L323.792 6.24571ZM319.952 12.3868C318.641 10.9354 317.092 9.8082 315.311 9.01159L314.4 11.047C315.897 11.7166 317.193 12.6592 318.297 13.8814L319.952 12.3868ZM315.333 9.02171C313.525 8.16546 311.504 7.75007 309.293 7.75007L309.293 9.97987C311.221 9.97987 312.909 10.3407 314.378 11.0369L315.333 9.02171ZM309.293 7.75007C306.991 7.75007 305.057 8.2186 303.685 9.34581C302.271 10.5075 301.645 12.2083 301.645 14.2338L303.875 14.2338C303.875 12.68 304.337 11.6965 305.101 11.0685C305.907 10.4062 307.24 9.97987 309.293 9.97987L309.293 7.75007ZM301.645 14.2338C301.645 16.0237 302.203 17.5471 303.477 18.5896L304.889 16.8638C304.265 16.3539 303.875 15.5487 303.875 14.2338L301.645 14.2338ZM303.496 18.6047C304.703 19.55 306.516 20.1723 308.776 20.5712L309.163 18.3753C307.024 17.9979 305.646 17.4559 304.87 16.8487L303.496 18.6047ZM308.774 20.5708L313.496 21.4117L313.887 19.2165L309.165 18.3756L308.774 20.5708ZM313.498 21.412C316.994 22.029 319.575 23.3238 321.352 25.217L322.978 23.6908C320.788 21.358 317.72 19.8929 313.885 19.2162L313.498 21.412ZM321.352 25.217C323.099 27.0774 324.026 29.6266 324.026 32.9923L326.255 32.9923C326.255 29.1995 325.199 26.0565 322.978 23.6908L321.352 25.217ZM324.026 32.9923C324.026 34.9737 323.682 36.7925 323.007 38.4602L325.074 39.2968C325.865 37.3423 326.255 35.2369 326.255 32.9923L324.026 32.9923ZM323.011 38.4515C322.343 40.0628 321.341 41.4812 319.991 42.712L321.493 44.3597C323.076 42.9168 324.273 41.2303 325.071 39.3056L323.011 38.4515ZM320.004 42.6998C318.665 43.8813 316.989 44.8271 314.95 45.5204L315.667 47.6315C317.94 46.8587 319.886 45.7777 321.48 44.3718L320.004 42.6998ZM314.943 45.5227C312.975 46.2056 310.624 46.5607 307.87 46.5607L307.87 48.7905C310.808 48.7905 313.416 48.4125 315.674 47.6293L314.943 45.5227Z" fill="white"/>
</svg>
