<svg width="324" height="323" viewBox="0 0 324 323" fill="none" xmlns="http://www.w3.org/2000/svg">
<g clip-path="url(#clip0_15593_217775)">
<path d="M306.842 27.2829L306.842 34.5181L303.527 32.3738L303.417 32.303L303.308 32.3738L299.791 34.6484L296.275 32.3738L296.165 32.303L296.056 32.3738L292.741 34.5181L292.741 27.2829C292.741 25.5099 293.481 23.8074 294.802 22.5504C296.124 21.2932 297.918 20.5852 299.791 20.5852C301.664 20.5852 303.459 21.2932 304.781 22.5504C306.102 23.8074 306.842 25.5099 306.842 27.2829Z" stroke="white" stroke-width="0.402903"/>
<path d="M294.041 160.394L297.264 160.423L297.294 157.2" stroke="white" stroke-width="0.402903"/>
<path d="M294.154 170.263L307.165 157.489" stroke="white" stroke-width="0.402903"/>
<path d="M305.154 168.456L307.187 166.46L307.15 170.489L303.121 170.452L305.154 168.456Z" fill="white"/>
<path d="M22.1917 177.92L22.1917 176.755C22.1917 176.449 22.2707 176.212 22.4286 176.044C22.5865 175.873 22.8025 175.788 23.0765 175.788C23.2731 175.788 23.4294 175.836 23.5454 175.933C23.6615 176.03 23.7437 176.16 23.792 176.325L23.8162 176.325C23.8613 176.128 23.9483 175.97 24.0773 175.851C24.203 175.731 24.3819 175.672 24.6139 175.672C24.7525 175.672 24.8799 175.694 24.9959 175.739C25.1119 175.785 25.2135 175.849 25.3005 175.933C25.3843 176.017 25.4504 176.118 25.4987 176.237C25.5438 176.354 25.5664 176.482 25.5664 176.624L25.5664 177.92L22.1917 177.92ZM25.1506 176.789C25.1506 176.608 25.1135 176.47 25.0394 176.373C24.9653 176.276 24.846 176.228 24.6816 176.228L24.5076 176.228C24.3432 176.228 24.2239 176.276 24.1498 176.373C24.0757 176.47 24.0386 176.608 24.0386 176.789L24.0386 177.388L25.1506 177.388L25.1506 176.789ZM23.6421 176.866C23.6421 176.695 23.6099 176.566 23.5454 176.479C23.4778 176.389 23.3666 176.344 23.2118 176.344L23.0378 176.344C22.8831 176.344 22.7735 176.389 22.709 176.479C22.6413 176.566 22.6075 176.695 22.6075 176.866L22.6075 177.388L23.6421 177.388L23.6421 176.866ZM25.5664 173.189L24.6671 173.445L24.6671 174.518L25.5664 174.774L25.5664 175.326L22.1917 174.339L22.1917 173.6L25.5664 172.613L25.5664 173.189ZM22.738 173.962L22.738 174.001L24.2175 174.417L24.2175 173.546L22.738 173.962ZM22.1917 172.122L22.1917 170.957C22.1917 170.651 22.2707 170.414 22.4286 170.246C22.5865 170.075 22.8025 169.99 23.0765 169.99C23.2731 169.99 23.4294 170.038 23.5454 170.135C23.6615 170.232 23.7437 170.362 23.792 170.526L23.8162 170.526C23.8613 170.33 23.9483 170.172 24.0773 170.053C24.203 169.933 24.3819 169.874 24.6139 169.874C24.7525 169.874 24.8799 169.896 24.9959 169.941C25.1119 169.987 25.2135 170.051 25.3005 170.135C25.3843 170.219 25.4504 170.32 25.4987 170.439C25.5438 170.555 25.5664 170.684 25.5664 170.826L25.5664 172.122L22.1917 172.122ZM25.1506 170.991C25.1506 170.81 25.1135 170.672 25.0394 170.575C24.9653 170.478 24.846 170.43 24.6816 170.43L24.5076 170.43C24.3432 170.43 24.2239 170.478 24.1498 170.575C24.0757 170.672 24.0386 170.81 24.0386 170.991L24.0386 171.59L25.1506 171.59L25.1506 170.991ZM23.6421 171.068C23.6421 170.897 23.6099 170.768 23.5454 170.681C23.4778 170.591 23.3666 170.546 23.2118 170.546L23.0378 170.546C22.8831 170.546 22.7735 170.591 22.709 170.681C22.6413 170.768 22.6075 170.897 22.6075 171.068L22.6075 171.59L23.6421 171.59L23.6421 171.068ZM25.5664 168.445L24.2948 168.445L22.1917 169.566L22.1917 168.962L23.0329 168.532L23.7533 168.183L23.7533 168.154L23.0329 167.802L22.1917 167.371L22.1917 166.781L24.2948 167.903L25.5664 167.903L25.5664 168.445ZM25.5664 163.464L22.1917 163.705L22.1917 163.232L24.1546 163.111L25.0201 163.057L25.0201 163.019L23.0088 162.637L23.0088 162.1L25.0201 161.718L25.0201 161.68L24.1546 161.626L22.1917 161.501L22.1917 161.046L25.5664 161.288L25.5664 162.013L23.6131 162.356L23.6131 162.395L25.5664 162.738L25.5664 163.464ZM24.0821 158.916L24.0821 160.038L25.5664 160.038L25.5664 160.579L22.1917 160.579L22.1917 160.038L23.6276 160.038L23.6276 158.916L22.1917 158.916L22.1917 158.374L25.5664 158.374L25.5664 158.916L24.0821 158.916ZM25.5664 155.794L24.6671 156.051L24.6671 157.124L25.5664 157.38L25.5664 157.931L22.1917 156.945L22.1917 156.205L25.5664 155.219L25.5664 155.794ZM22.738 156.568L22.738 156.607L24.2175 157.023L24.2175 156.152L22.738 156.568ZM25.5664 154.607L22.1917 154.607L22.1917 154.066L25.1119 154.066L25.1119 152.528L25.5664 152.528L25.5664 154.607ZM25.5664 151.814L22.1917 151.814L22.1917 149.702L22.6462 149.702L22.6462 151.273L23.6276 151.273L23.6276 149.76L24.0821 149.76L24.0821 151.273L25.1119 151.273L25.1119 149.702L25.5664 149.702L25.5664 151.814Z" fill="white"/>
</g>
<rect x="1.03934" y="0.439733" width="321.92" height="321.92" rx="23.7985" stroke="white" stroke-width="0.402903"/>
<defs>
<clipPath id="clip0_15593_217775">
<rect x="0.837891" y="0.238281" width="322.323" height="322.323" rx="24" fill="white"/>
</clipPath>
</defs>
</svg>
