<svg width="13" height="12" viewBox="0 0 13 12" fill="none" xmlns="http://www.w3.org/2000/svg">
<path d="M13 5.70785V12L9.75 10.0596L6.5 12L3.25 10.0596L0 12V5.70785C0 4.19402 0.684819 2.74221 1.90381 1.67178C3.1228 0.601357 4.77609 0 6.5 0C8.22391 0 9.87718 0.601357 11.0962 1.67178C12.3152 2.74221 13 4.19402 13 5.70785Z" fill="white"/>
<path d="M12.5 5.70785V11.1191L10.0063 9.6303L9.75 9.47727L9.49369 9.6303L6.5 11.4177L3.50631 9.6303L3.25 9.47727L2.99369 9.6303L0.5 11.1191V5.70785C0.5 4.34915 1.11409 3.03067 2.23372 2.04749C3.35545 1.06247 4.88923 0.5 6.5 0.5C8.11077 0.5 9.64453 1.06247 10.7663 2.04749C11.8859 3.03068 12.5 4.34915 12.5 5.70785Z" stroke="white" stroke-opacity="0.33"/>
</svg>
