<svg width="269" height="51" viewBox="0 0 269 51" fill="none" xmlns="http://www.w3.org/2000/svg">
<path d="M239.832 55.3886L239.871 55.3886L239.918 55.3886C240.811 55.3809 241.54 55.139 241.54 54.8431L241.54 51.2662C241.54 50.9652 240.788 50.7207 239.871 50.7207C238.971 50.7207 238.227 50.9626 238.219 51.2611L238.219 54.8508C238.227 55.1467 238.947 55.3809 239.832 55.3886Z" fill="#FFF7F7" fill-opacity="0.2"/>
<path d="M246.067 55.3876L246.106 55.3876L246.153 55.3876C247.046 55.3799 247.774 55.138 247.774 54.8421L247.774 51.2653C247.774 50.9642 247.022 50.7197 246.106 50.7197C245.205 50.7197 244.461 50.9616 244.453 51.2601L244.453 54.8498C244.461 55.1457 245.182 55.3799 246.067 55.3876Z" fill="#FFF7F7" fill-opacity="0.2"/>
<path d="M234.67 55.3882L234.709 55.3882L234.756 55.3882C235.649 55.3804 236.37 55.1385 236.37 54.8426L236.37 44.9664C236.37 44.6654 235.626 44.4209 234.709 44.4209C233.809 44.4209 233.064 44.6628 233.057 44.9587L233.057 54.8503C233.064 55.1463 233.777 55.3804 234.67 55.3882Z" fill="#FFF7F7" fill-opacity="0.2"/>
<path d="M229.508 55.3882L229.547 55.3882L229.594 55.3882C230.487 55.3804 231.208 55.1386 231.208 54.8426L231.208 39.5729C231.208 39.2718 230.464 39.0273 229.547 39.0273C228.639 39.0273 227.902 39.2692 227.887 39.5652L227.887 54.8478C227.902 55.1463 228.607 55.3804 229.508 55.3882Z" fill="#FFF7F7" fill-opacity="0.2"/>
<path d="M224.338 55.388L224.377 55.388L224.424 55.388C225.317 55.3802 226.038 55.1383 226.038 54.8424L226.038 33.2115C226.038 32.913 225.294 32.666 224.377 32.666C223.469 32.666 222.732 32.9079 222.725 33.2038L222.725 54.8501C222.732 55.1461 223.445 55.3802 224.338 55.388Z" fill="#FFF7F7" fill-opacity="0.2"/>
<path d="M219.17 55.388L219.217 55.388L219.264 55.388C220.157 55.3803 220.878 55.1384 220.878 54.8425L220.878 30.3424C220.878 30.0413 220.133 29.7969 219.217 29.7969C218.309 29.7969 217.572 30.0388 217.557 30.3347L217.557 54.8476C217.572 55.1461 218.285 55.3803 219.17 55.388Z" fill="#FFF7F7" fill-opacity="0.2"/>
<path d="M214.016 55.3883L214.055 55.3883L214.094 55.3883C214.995 55.3806 215.715 55.1387 215.715 54.8428L215.715 34.7867C215.715 34.4857 214.971 34.2412 214.055 34.2412C213.146 34.2412 212.41 34.4831 212.395 34.779L212.395 54.8505C212.402 55.1464 213.123 55.3806 214.016 55.3883Z" fill="#FFF7F7" fill-opacity="0.2"/>
<path d="M208.846 55.3882L208.893 55.3882L208.932 55.3882C209.833 55.3805 210.546 55.1386 210.546 54.8427L210.546 29.7379C210.546 29.4368 209.809 29.1924 208.893 29.1924C207.984 29.1924 207.24 29.4343 207.232 29.7302L207.232 54.8504C207.24 55.1463 207.961 55.3805 208.846 55.3882Z" fill="#FFF7F7" fill-opacity="0.2"/>
<path d="M203.686 55.3877L203.733 55.3877L203.772 55.3877C204.673 55.38 205.393 55.1381 205.393 54.8421L205.393 36.8473C205.393 36.5462 204.649 36.3018 203.733 36.3018C202.824 36.3018 202.08 36.5436 202.072 36.8396L202.072 54.8499C202.08 55.1458 202.785 55.38 203.686 55.3877Z" fill="#FFF7F7" fill-opacity="0.2"/>
<path d="M198.524 55.3886L198.571 55.3886L198.61 55.3886C199.503 55.3809 200.231 55.139 200.231 54.8431L200.231 27.0338C200.231 26.7327 199.479 26.4883 198.571 26.4883C197.662 26.4883 196.918 26.7302 196.902 27.0261L196.902 54.8508C196.91 55.1467 197.631 55.3809 198.524 55.3886Z" fill="#FFF7F7" fill-opacity="0.2"/>
<path d="M193.354 55.3879L193.401 55.3879L193.44 55.3879C194.341 55.3801 195.061 55.1383 195.061 54.8423L195.061 22.5504C195.061 22.2493 194.309 22.0049 193.401 22.0049C192.484 22.0049 191.748 22.2442 191.74 22.5427L191.74 54.8526C191.748 55.146 192.461 55.3801 193.354 55.3879Z" fill="#FFF7F7" fill-opacity="0.2"/>
<path d="M188.192 55.3882L188.231 55.3882L188.278 55.3882C189.171 55.3805 189.891 55.1386 189.891 54.8427L189.891 13.8248C189.891 13.5238 189.147 13.2793 188.231 13.2793C187.322 13.2793 186.586 13.5186 186.578 13.8171L186.578 54.8504C186.586 55.1463 187.307 55.3805 188.192 55.3882Z" fill="#FFF7F7" fill-opacity="0.2"/>
<path d="M183.024 55.3888L183.071 55.3888L183.118 55.3888C184.011 55.3811 184.731 55.1392 184.731 54.8433L184.731 6.39124C184.731 6.09016 183.987 5.8457 183.071 5.8457C182.162 5.8457 181.426 6.08759 181.41 6.38352L181.41 54.851C181.418 55.1469 182.139 55.3811 183.024 55.3888Z" fill="#FFF7F7" fill-opacity="0.2"/>
<path d="M177.869 55.3887L177.909 55.3887L177.955 55.3887C178.848 55.3809 179.569 55.139 179.569 54.8431L179.569 16.2467C179.569 15.9456 178.825 15.7012 177.909 15.7012C177 15.7012 176.264 15.9431 176.248 16.2416L176.248 54.8508C176.264 55.1468 176.976 55.3809 177.869 55.3887Z" fill="#FFF7F7" fill-opacity="0.2"/>
<path d="M172.699 55.3883L172.746 55.3883L172.793 55.3883C173.678 55.3805 174.407 55.1386 174.407 54.8427L174.407 27.5172C174.407 27.2161 173.655 26.9717 172.746 26.9717C171.838 26.9717 171.102 27.211 171.086 27.5095L171.086 54.8504C171.094 55.1464 171.807 55.3805 172.699 55.3883Z" fill="#FFF7F7" fill-opacity="0.2"/>
<path d="M167.531 55.3888L167.578 55.3888L167.618 55.3888C168.518 55.381 169.239 55.1391 169.239 54.8432L169.239 34.6071C169.239 34.306 168.495 34.0615 167.578 34.0615C166.67 34.0615 165.934 34.3034 165.918 34.5993L165.918 54.8509C165.934 55.1469 166.646 55.381 167.531 55.3888Z" fill="#FFF7F7" fill-opacity="0.2"/>
<path d="M162.369 55.3885L162.416 55.3885L162.463 55.3885C163.356 55.3808 164.077 55.1389 164.077 54.843L164.077 26.4264C164.077 26.1253 163.333 25.8809 162.416 25.8809C161.508 25.8809 160.764 26.1227 160.756 26.4187L160.756 54.8507C160.764 55.1466 161.484 55.3808 162.369 55.3885Z" fill="#FFF7F7" fill-opacity="0.2"/>
<path d="M157.207 55.3881L157.254 55.3881L157.301 55.3881C158.194 55.3804 158.915 55.1385 158.915 54.8426L158.915 10.8346C158.915 10.5335 158.163 10.2891 157.254 10.2891C156.346 10.2891 155.602 10.5309 155.586 10.8269L155.586 54.8503C155.602 55.1462 156.322 55.3804 157.207 55.3881Z" fill="#FFF7F7" fill-opacity="0.2"/>
<path d="M152.045 55.3881L152.092 55.3881L152.131 55.3881C153.024 55.3804 153.745 55.1385 153.745 54.8426L153.745 0.858032C153.745 0.55696 153.001 0.3125 152.092 0.3125C151.176 0.3125 150.439 0.551814 150.432 0.850313L150.432 54.8503C150.439 55.1462 151.152 55.3804 152.045 55.3881Z" fill="#FFF7F7" fill-opacity="0.2"/>
<path d="M146.885 55.3882L146.924 55.3882L146.971 55.3882C147.864 55.3805 148.592 55.1386 148.592 54.8427L148.592 5.42053C148.592 5.11946 147.841 4.875 146.924 4.875C146.023 4.875 145.279 5.11689 145.271 5.41281L145.271 54.8504C145.279 55.1463 145.992 55.3805 146.885 55.3882Z" fill="#FFF7F7" fill-opacity="0.2"/>
<path d="M141.723 55.3881L141.762 55.3881L141.809 55.3881C142.702 55.3804 143.422 55.1385 143.422 54.8426L143.422 14.7125C143.422 14.414 142.678 14.167 141.762 14.167C140.853 14.167 140.117 14.4089 140.102 14.7074L140.102 54.8529C140.117 55.1462 140.822 55.3804 141.723 55.3881Z" fill="#FFF7F7" fill-opacity="0.2"/>
<path d="M136.553 55.3879L136.592 55.3879L136.639 55.3879C137.532 55.3802 138.253 55.1383 138.253 54.8423L138.253 22.0641C138.253 21.763 137.508 21.5186 136.592 21.5186C135.684 21.5186 134.947 21.7579 134.932 22.0564L134.932 54.8501C134.939 55.146 135.66 55.3802 136.553 55.3879Z" fill="#FFF7F7" fill-opacity="0.2"/>
<path d="M131.393 55.388L131.432 55.388L131.479 55.388C132.372 55.3803 133.092 55.1384 133.092 54.8425L133.092 15.7623C133.092 15.4613 132.348 15.2168 131.432 15.2168C130.523 15.2168 129.787 15.4587 129.771 15.7572L129.771 54.8502C129.779 55.1462 130.5 55.3803 131.393 55.388Z" fill="#FFF7F7" fill-opacity="0.2"/>
<path d="M126.231 55.388L126.27 55.388L126.317 55.388C127.21 55.3803 127.93 55.1384 127.93 54.8425L127.93 9.98791C127.93 9.68684 127.186 9.44238 126.27 9.44238C125.361 9.44238 124.617 9.6817 124.609 9.9802L124.609 54.8528C124.617 55.1462 125.338 55.3803 126.231 55.388Z" fill="#FFF7F7" fill-opacity="0.2"/>
<path d="M121.061 55.3883L121.108 55.3883L121.155 55.3883C122.048 55.3805 122.768 55.1387 122.768 54.8427L122.768 21.5807C122.768 21.2796 122.024 21.0352 121.108 21.0352C120.199 21.0352 119.463 21.277 119.447 21.573L119.447 54.853C119.463 55.1464 120.176 55.3805 121.061 55.3883Z" fill="#FFF7F7" fill-opacity="0.2"/>
<path d="M115.901 55.3889L115.948 55.3889L115.987 55.3889C116.887 55.3811 117.608 55.1393 117.608 54.8433L117.608 26.2646C117.608 25.9661 116.856 25.7217 115.948 25.7217C115.039 25.7217 114.295 25.961 114.287 26.2595L114.287 54.8511C114.295 55.147 115.008 55.3811 115.901 55.3889Z" fill="#FFF7F7" fill-opacity="0.2"/>
<path d="M110.738 55.3878L110.785 55.3878L110.825 55.3878C111.725 55.3801 112.446 55.1382 112.446 54.8423L112.446 24.609C112.446 24.3079 111.702 24.0635 110.785 24.0635C109.877 24.0635 109.133 24.3028 109.125 24.6013L109.125 54.85C109.125 55.146 109.846 55.3801 110.738 55.3878Z" fill="#FFF7F7" fill-opacity="0.2"/>
<path d="M105.569 55.3882L105.616 55.3882L105.655 55.3882C106.555 55.3805 107.276 55.1386 107.276 54.8427L107.276 29.7379C107.276 29.4368 106.524 29.1924 105.616 29.1924C104.707 29.1924 103.963 29.4343 103.955 29.7302L103.955 54.8504C103.963 55.1463 104.683 55.3805 105.569 55.3882Z" fill="#FFF7F7" fill-opacity="0.2"/>
<path d="M100.406 55.3884L100.446 55.3884L100.493 55.3884C101.385 55.3807 102.106 55.1388 102.106 54.8429L102.106 32.3834C102.106 32.0824 101.362 31.8379 100.446 31.8379C99.537 31.8379 98.8008 32.0772 98.793 32.3757L98.793 54.848C98.8008 55.1465 99.5135 55.3807 100.406 55.3884Z" fill="#FFF7F7" fill-opacity="0.2"/>
<path d="M95.2463 55.388L95.2855 55.388L95.3325 55.388C96.2332 55.3803 96.9459 55.1384 96.9459 54.8425L96.9459 29.4752C96.9459 29.1741 96.2019 28.9297 95.2855 28.9297C94.3769 28.9297 93.6407 29.1716 93.625 29.4701L93.625 54.8502C93.6407 55.1461 94.3534 55.3803 95.2463 55.388Z" fill="#FFF7F7" fill-opacity="0.2"/>
<path d="M90.0764 55.3878L90.1234 55.3878L90.1703 55.3878C91.0632 55.3801 91.7838 55.1382 91.7838 54.8423L91.7838 16.8531C91.7838 16.5521 91.0397 16.3076 90.1234 16.3076C89.2148 16.3076 88.4786 16.5495 88.4629 16.848L88.4629 54.8526C88.4786 55.1459 89.1913 55.3801 90.0764 55.3878Z" fill="#FFF7F7" fill-opacity="0.2"/>
<path d="M84.9221 55.3885L84.9612 55.3885L85.0082 55.3885C85.9011 55.3808 86.6217 55.1389 86.6217 54.843L86.6217 21.6813C86.6217 21.3802 85.8776 21.1357 84.9612 21.1357C84.0527 21.1357 83.3164 21.3751 83.3008 21.6736L83.3008 54.8532C83.3164 55.1466 84.0214 55.3808 84.9221 55.3885Z" fill="#FFF7F7" fill-opacity="0.2"/>
<path d="M79.7463 55.3886L79.7933 55.3886L79.8403 55.3886C80.7332 55.3809 81.4537 55.139 81.4537 54.8431L81.4537 28.3873C81.4537 28.0863 80.7097 27.8418 79.7933 27.8418C78.8847 27.8418 78.1406 28.0811 78.1328 28.3796L78.1328 54.8508C78.1406 55.1467 78.8612 55.3809 79.7463 55.3886Z" fill="#FFF7F7" fill-opacity="0.2"/>
<path d="M74.5842 55.3881L74.6312 55.3881L74.6782 55.3881C75.5711 55.3804 76.2916 55.1385 76.2916 54.8426L76.2916 32.1412C76.2916 31.8402 75.5476 31.5957 74.6312 31.5957C73.7226 31.5957 72.9785 31.8376 72.9707 32.1361L72.9707 54.8503C72.9785 55.1462 73.6991 55.3804 74.5842 55.3881Z" fill="#FFF7F7" fill-opacity="0.2"/>
<path d="M69.4221 55.388L69.4691 55.388L69.5082 55.388C70.4089 55.3803 71.1217 55.1384 71.1217 54.8425L71.1217 29.6373C71.1217 29.3363 70.3854 29.0918 69.4691 29.0918C68.5605 29.0918 67.8243 29.3311 67.8086 29.6296L67.8086 54.8502C67.8164 55.1461 68.537 55.3803 69.4221 55.388Z" fill="#FFF7F7" fill-opacity="0.2"/>
<path d="M64.26 55.3884L64.307 55.3884L64.3461 55.3884C65.2468 55.3807 65.9674 55.1388 65.9674 54.8429L65.9674 43.7161C65.9674 43.415 65.2155 43.168 64.307 43.168C63.3984 43.168 62.6543 43.4099 62.6465 43.7084L62.6465 54.8506C62.6543 55.1465 63.3749 55.3807 64.26 55.3884Z" fill="#FFF7F7" fill-opacity="0.2"/>
<path d="M59.0998 55.3879L59.1468 55.3879L59.186 55.3879C60.0867 55.3802 60.7994 55.1383 60.7994 54.8424L60.7994 33.5358C60.7994 33.2347 60.0632 32.9902 59.1468 32.9902C58.2383 32.9902 57.4942 33.2295 57.4785 33.528L57.4785 54.8501C57.4942 55.1461 58.2069 55.3802 59.0998 55.3879Z" fill="#FFF7F7" fill-opacity="0.2"/>
<path d="M53.9377 55.3883L53.9769 55.3883L54.0239 55.3883C54.9168 55.3805 55.6373 55.1387 55.6373 54.8427L55.6373 31.7168C55.6373 31.4183 54.8933 31.1738 53.9769 31.1738C53.0683 31.1738 52.3321 31.4131 52.3164 31.7116L52.3164 54.8504C52.3242 55.1464 53.0448 55.3805 53.9377 55.3883Z" fill="#FFF7F7" fill-opacity="0.2"/>
<path d="M48.7678 55.3883L48.8148 55.3883L48.8539 55.3883C49.7468 55.3806 50.4674 55.1387 50.4674 54.8428L50.4674 39.8561C50.4674 39.5576 49.7233 39.3105 48.8148 39.3105C47.8984 39.3105 47.1621 39.5524 47.1465 39.8509L47.1465 54.8505C47.1621 55.1464 47.8749 55.3806 48.7678 55.3883Z" fill="#FFF7F7" fill-opacity="0.2"/>
<path d="M43.6076 55.3884L43.6468 55.3884L43.6938 55.3884C44.5867 55.3807 45.3073 55.1388 45.3073 54.8429L45.3073 47.7535C45.3073 47.4525 44.5632 47.208 43.6468 47.208C42.7382 47.208 42.002 47.4499 41.9863 47.7458L41.9863 54.8506C42.002 55.1465 42.7147 55.3807 43.6076 55.3884Z" fill="#FFF7F7" fill-opacity="0.2"/>
<path d="M38.4377 55.3885L38.4847 55.3885L38.5317 55.3885C39.4246 55.3807 40.1451 55.1389 40.1451 54.8429L40.1451 51.1451C40.1451 50.8441 39.4011 50.5996 38.4847 50.5996C37.5761 50.5996 36.8399 50.8415 36.8242 51.1374L36.8242 54.8481C36.8399 55.1466 37.5526 55.3807 38.4377 55.3885Z" fill="#FFF7F7" fill-opacity="0.2"/>
<path d="M33.2424 55.3885L33.2894 55.3885L33.3364 55.3885C34.2293 55.3807 34.9498 55.1389 34.9498 54.8429L34.9498 51.1451C34.9498 50.8441 34.2058 50.5996 33.2894 50.5996C32.3808 50.5996 31.6446 50.8415 31.6289 51.1374L31.6289 54.8481C31.6446 55.1466 32.3573 55.3807 33.2424 55.3885Z" fill="#FFF7F7" fill-opacity="0.2"/>
<path d="M28.0451 55.3885L28.0921 55.3885L28.1391 55.3885C29.032 55.3807 29.7526 55.1389 29.7526 54.8429L29.7526 51.1451C29.7526 50.8441 29.0085 50.5996 28.0921 50.5996C27.1835 50.5996 26.4473 50.8415 26.4316 51.1374L26.4316 54.8481C26.4473 55.1466 27.1601 55.3807 28.0451 55.3885Z" fill="#FFF7F7" fill-opacity="0.2"/>
<path d="M22.8498 55.3885L22.8968 55.3885L22.9438 55.3885C23.8367 55.3807 24.5573 55.1389 24.5573 54.8429L24.5573 51.1451C24.5573 50.8441 23.8132 50.5996 22.8968 50.5996C21.9882 50.5996 21.252 50.8415 21.2363 51.1374L21.2363 54.8481C21.252 55.1466 21.9647 55.3807 22.8498 55.3885Z" fill="#FFF7F7" fill-opacity="0.2"/>
<path d="M17.6545 55.3885L17.7015 55.3885L17.7485 55.3885C18.6414 55.3807 19.3619 55.1389 19.3619 54.8429L19.3619 51.1451C19.3619 50.8441 18.6179 50.5996 17.7015 50.5996C16.7929 50.5996 16.0567 50.8415 16.041 51.1374L16.041 54.8481C16.0567 55.1466 16.7694 55.3807 17.6545 55.3885Z" fill="#FFF7F7" fill-opacity="0.2"/>
<path d="M12.4592 55.3885L12.5062 55.3885L12.5532 55.3885C13.4461 55.3807 14.1666 55.1389 14.1666 54.8429L14.1666 51.1451C14.1666 50.8441 13.4226 50.5996 12.5062 50.5996C11.5976 50.5996 10.8614 50.8415 10.8457 51.1374L10.8457 54.8481C10.8614 55.1466 11.5741 55.3807 12.4592 55.3885Z" fill="#FFF7F7" fill-opacity="0.2"/>
<path d="M7.26191 55.3885L7.3089 55.3885L7.3559 55.3885C8.24879 55.3807 8.96937 55.1389 8.96937 54.8429L8.96937 51.1451C8.96937 50.8441 8.22529 50.5996 7.3089 50.5996C6.40035 50.5996 5.6641 50.8415 5.64844 51.1374L5.64844 54.8481C5.6641 55.1466 6.37685 55.3807 7.26191 55.3885Z" fill="#FFF7F7" fill-opacity="0.2"/>
<path d="M2.0666 55.3885L2.11359 55.3885L2.16058 55.3885C3.05348 55.3807 3.77406 55.1389 3.77406 54.8429L3.77406 51.1451C3.77406 50.8441 3.02998 50.5996 2.11359 50.5996C1.20503 50.5996 0.46879 50.8415 0.453125 51.1374L0.453125 54.8481C0.46879 55.1466 1.18154 55.3807 2.0666 55.3885Z" fill="#FFF7F7" fill-opacity="0.2"/>
</svg>
